<svg xmlns="http://www.w3.org/2000/svg" version="1" width="252" height="97.333" viewBox="0 0 189.000000 73.000000"><path d="M45 6.7c-3 .2-6 .8-6.6 1.4-.6.5-3.1 5.6-5.5 11.4C30.5 25.2 28.3 30 28 30c-.3 0-2.5-4.7-4.9-10.5-2.3-5.7-4.9-10.9-5.6-11.5-.7-.6-3.7-1-6.7-.8-4.5.3-5.3.6-5.6 2.3C5 10.7 8.3 19.9 12.5 30c5.5 13.3 7.4 18.9 6.7 20-.5.8-2.7 1.7-4.8 2l-3.9.5v11l6 .3c7.5.3 12.2-1.9 15-7l2.1-3.7 2.7 3.5c1.6 1.9 4.7 4.4 7 5.6 4.4 2.3 9.8 2.6 29.2 1.7l8-.4.6-9.6c.9-13.3 1.9-14.6 5-6.7l2.4 6.3 5.7.3c6.5.3 6.5.4 10.9-12.1l2.4-6.8.5 14.3.5 14.3h12l.3-22.3.2-22.2h5.1c4.5 0 5 .2 4.4 1.7-3 7.3-3.1 22.6-.1 29.5 2.4 5.7 7.1 10.3 12.8 12.8 9.6 4.1 24.3 1.6 30.4-5.2 5.4-5.9 6.9-10.6 6.9-22.3 0-9.6-.3-11.6-2.4-15.5-3-5.9-5.7-8.7-10.6-11.3-3.9-2.1-4.9-2.2-33-1.8-15.9.1-29.2.4-29.5.6-.3.2-2.7 6.4-5.5 13.8l-5 13.5-5.1-13.7-5.1-13.6-8.9-.2c-4.9-.2-12.5-.5-16.9-.7-4.4-.2-10.5-.1-13.5.1zm29.9 1.7l8.4.1 5.5 14.8 5.6 14.9 2.9-7.4c1.6-4 4.1-10.7 5.6-14.8l2.8-7.5 20.4-.4c40.3-.7 37.2-.8 41.7 2.2 8.6 5.6 11.7 12.5 11.7 25.7-.1 7.8-.5 10.3-2.4 14.2l-2.3 4.8h-12.4c-6.8 0-12.4-.3-12.4-.8 0-.4 2-.7 4.4-.7 13.8 0 19.6-20.8 9.1-32.3-3-3.3-3.8-3.7-8.4-3.7H150V10h-42.8l-1.1 3.1c-.6 1.8-.32 15.07-.42 21.17-4.81 15.619-4.496 19.315-11.024 18.691-2.4 0-4.856-.561-5.356-1.161-.4-.7-2.2-5.1-3.9-9.7l-3.1-8.4-.6 4.9c-.3 2.7-.9 7.5-1.3 10.7l-.7 5.7-13.1-.1c-12.8 0-13-.1-8.1-1.4 3.2-.8 5.9-2.4 7.7-4.4 2.7-3 2.8-3.6 2.8-13.6C69 25 69 25 65.7 21.4c-2.4-2.6-4.3-3.7-7.5-4.1-4-.5-4.2-.7-4.2-3.9V10H40.4l-4.8 11.5C33 27.8 30.4 33 29.9 33c-.9 0 1.6-7.1 6.4-18.5l2.6-6 6.8-.6c3.7-.4 10-.4 13.8-.2 3.9.3 10.8.6 15.4.7zM60.5 19c1.4.5 3.7 2.2 5 3.6 2.3 2.5 2.5 3.4 2.5 13 0 10.1 0 10.3-3 13.3-8.6 8.5-20.4 2-21.8-11.9-.6-6.7 3.2-14.9 7.9-17.3 4-1.9 5.8-2.1 9.4-.7zm100.8 1.5c6.1 4 8.3 17 4.1 24.9-5.8 11.2-19.8 8.9-23.4-3.8-4.2-15.3 8-28.6 19.3-21.1z"/></svg>