<svg height="103.589" viewBox="0 0 313.82654 103.58898" width="313.827" xmlns="http://www.w3.org/2000/svg"><filter id="d" color-interpolation-filters="sRGB"><feGaussianBlur result="blur" stdDeviation=".402"/><feComposite in="SourceGraphic" in2="blur" operator="in" result="composite1"/><feComposite in="composite1" in2="composite1" operator="in" result="fbSourceGraphic"/><feColorMatrix in="fbSourceGraphic" result="fbSourceGraphicAlpha" values="0 0 0 -1 0 0 0 0 -1 0 0 0 0 -1 0 0 0 0 1 0"/><feMorphology in="fbSourceGraphicAlpha" radius="4.3" result="result91"/><feComposite in="fbSourceGraphic" in2="result91" operator="out"/><feGaussianBlur result="result0" stdDeviation="1.2"/><feDiffuseLighting result="result92"><feDistantLight azimuth="225" elevation="66"/></feDiffuseLighting><feBlend in2="fbSourceGraphic" mode="multiply" result="result93"/><feComposite in2="fbSourceGraphicAlpha" operator="in" result="fbSourceGraphic"/><feColorMatrix in="fbSourceGraphic" result="fbSourceGraphicAlpha" values="0 0 0 -1 0 0 0 0 -1 0 0 0 0 -1 0 0 0 0 1 0"/><feMorphology in="fbSourceGraphicAlpha" operator="dilate" radius="3.6" result="result1"/><feGaussianBlur in="result1" result="result0" stdDeviation="3.6"/><feDiffuseLighting result="result94" surfaceScale="-5"><feDistantLight azimuth="225" elevation="45"/></feDiffuseLighting><feComposite in2="result0" operator="in" result="result91"/><feComposite in="fbSourceGraphic" in2="result91" result="fbSourceGraphic"/><feColorMatrix in="fbSourceGraphic" result="fbSourceGraphicAlpha" values="0 0 0 -1 0 0 0 0 -1 0 0 0 0 -1 0 0 0 0 1 0"/><feFlood flood-opacity=".498" result="flood"/><feComposite in="fbSourceGraphic" in2="flood" operator="in" result="composite1"/><feGaussianBlur in="composite1" result="blur" stdDeviation="1"/><feOffset dx="3" dy="2" result="offset"/><feComposite in="fbSourceGraphic" in2="offset" result="composite2"/></filter><filter id="b" color-interpolation-filters="sRGB"><feGaussianBlur result="blur" stdDeviation=".4"/><feComposite in="SourceGraphic" in2="blur" operator="in" result="composite1"/><feComposite in="composite1" in2="composite1" operator="in" result="fbSourceGraphic"/><feColorMatrix in="fbSourceGraphic" result="fbSourceGraphicAlpha" values="0 0 0 -1 0 0 0 0 -1 0 0 0 0 -1 0 0 0 0 1 0"/><feFlood flood-opacity=".498" result="flood"/><feComposite in="fbSourceGraphic" in2="flood" operator="in" result="composite1"/><feGaussianBlur in="composite1" result="blur" stdDeviation="1"/><feOffset dx="3" dy="2" result="offset"/><feComposite in="fbSourceGraphic" in2="offset" result="fbSourceGraphic"/><feColorMatrix in="fbSourceGraphic" result="fbSourceGraphicAlpha" values="0 0 0 -1 0 0 0 0 -1 0 0 0 0 -1 0 0 0 0 1 0"/><feGaussianBlur in="fbSourceGraphic" result="result0" stdDeviation="6"/><feDiffuseLighting result="result5" surfaceScale="4"><feDistantLight azimuth="235" elevation="45"/></feDiffuseLighting><feComposite in="result5" in2="fbSourceGraphic" k1="1.4" operator="arithmetic" result="fbSourceGraphic"/><feGaussianBlur in="fbSourceGraphic" result="result0" stdDeviation="6"/><feSpecularLighting in="result0" result="result1" specularExponent="25" surfaceScale="4"><feDistantLight azimuth="235" elevation="45"/></feSpecularLighting><feComposite in="fbSourceGraphic" in2="result1" k2="1" k3="1" operator="arithmetic" result="result4"/><feComposite in="result4" in2="fbSourceGraphic" operator="in" result="fbSourceGraphic"/><feColorMatrix in="fbSourceGraphic" result="fbSourceGraphicAlpha" values="0 0 0 -1 0 0 0 0 -1 0 0 0 0 -1 0 0 0 0 1 0"/><feFlood flood-opacity=".498" result="flood"/><feComposite in="fbSourceGraphic" in2="flood" operator="in" result="composite1"/><feGaussianBlur in="composite1" result="blur" stdDeviation="1"/><feOffset dx="3" dy="2" result="offset"/><feComposite in="fbSourceGraphic" in2="offset" result="composite2"/></filter><filter id="a" color-interpolation-filters="sRGB"><feGaussianBlur result="blur" stdDeviation=".4"/><feComposite in="SourceGraphic" in2="blur" operator="in" result="composite1"/><feComposite in="composite1" in2="composite1" operator="in" result="fbSourceGraphic"/><feColorMatrix in="fbSourceGraphic" result="fbSourceGraphicAlpha" values="0 0 0 -1 0 0 0 0 -1 0 0 0 0 -1 0 0 0 0 1 0"/><feFlood flood-opacity=".498" result="flood"/><feComposite in="fbSourceGraphic" in2="flood" operator="in" result="composite1"/><feGaussianBlur in="composite1" result="blur" stdDeviation="1"/><feOffset dx="3" dy="2" result="offset"/><feComposite in="fbSourceGraphic" in2="offset" result="fbSourceGraphic"/><feColorMatrix in="fbSourceGraphic" result="fbSourceGraphicAlpha" values="0 0 0 -1 0 0 0 0 -1 0 0 0 0 -1 0 0 0 0 1 0"/><feGaussianBlur in="fbSourceGraphic" result="result0" stdDeviation="6"/><feDiffuseLighting result="result5" surfaceScale="4"><feDistantLight azimuth="235" elevation="45"/></feDiffuseLighting><feComposite in="result5" in2="fbSourceGraphic" k1="1.4" operator="arithmetic" result="fbSourceGraphic"/><feGaussianBlur in="fbSourceGraphic" result="result0" stdDeviation="6"/><feSpecularLighting in="result0" result="result1" specularExponent="25" surfaceScale="4"><feDistantLight azimuth="235" elevation="45"/></feSpecularLighting><feComposite in="fbSourceGraphic" in2="result1" k2="1" k3="1" operator="arithmetic" result="result4"/><feComposite in="result4" in2="fbSourceGraphic" operator="in" result="fbSourceGraphic"/><feColorMatrix in="fbSourceGraphic" result="fbSourceGraphicAlpha" values="0 0 0 -1 0 0 0 0 -1 0 0 0 0 -1 0 0 0 0 1 0"/><feFlood flood-opacity=".498" result="flood"/><feComposite in="fbSourceGraphic" in2="flood" operator="in" result="composite1"/><feGaussianBlur in="composite1" result="blur" stdDeviation="1"/><feOffset dx="3" dy="2" result="offset"/><feComposite in="fbSourceGraphic" in2="offset" result="composite2"/></filter><filter id="c" color-interpolation-filters="sRGB"><feGaussianBlur result="blur" stdDeviation=".4"/><feComposite in="SourceGraphic" in2="blur" operator="in" result="composite1"/><feComposite in="composite1" in2="composite1" operator="in" result="fbSourceGraphic"/><feColorMatrix in="fbSourceGraphic" result="fbSourceGraphicAlpha" values="0 0 0 -1 0 0 0 0 -1 0 0 0 0 -1 0 0 0 0 1 0"/><feFlood flood-opacity=".498" result="flood"/><feComposite in="fbSourceGraphic" in2="flood" operator="in" result="composite1"/><feGaussianBlur in="composite1" result="blur" stdDeviation="1"/><feOffset dx="3" dy="2" result="offset"/><feComposite in="fbSourceGraphic" in2="offset" result="fbSourceGraphic"/><feColorMatrix in="fbSourceGraphic" result="fbSourceGraphicAlpha" values="0 0 0 -1 0 0 0 0 -1 0 0 0 0 -1 0 0 0 0 1 0"/><feGaussianBlur in="fbSourceGraphic" result="result0" stdDeviation="6"/><feDiffuseLighting result="result5" surfaceScale="4"><feDistantLight azimuth="235" elevation="45"/></feDiffuseLighting><feComposite in="result5" in2="fbSourceGraphic" k1="1.4" operator="arithmetic" result="fbSourceGraphic"/><feGaussianBlur in="fbSourceGraphic" result="result0" stdDeviation="6"/><feSpecularLighting in="result0" result="result1" specularExponent="25" surfaceScale="4"><feDistantLight azimuth="235" elevation="45"/></feSpecularLighting><feComposite in="fbSourceGraphic" in2="result1" k2="1" k3="1" operator="arithmetic" result="result4"/><feComposite in="result4" in2="fbSourceGraphic" operator="in" result="fbSourceGraphic"/><feColorMatrix in="fbSourceGraphic" result="fbSourceGraphicAlpha" values="0 0 0 -1 0 0 0 0 -1 0 0 0 0 -1 0 0 0 0 1 0"/><feFlood flood-opacity=".498" result="flood"/><feComposite in="fbSourceGraphic" in2="flood" operator="in" result="composite1"/><feGaussianBlur in="composite1" result="blur" stdDeviation="1"/><feOffset dx="3" dy="2" result="offset"/><feComposite in="fbSourceGraphic" in2="offset" result="composite2"/></filter><path d="M54.733 27.211h17.553c1.984 0 3.607 1.969 3.607 4.374v75.239c0 2.406-1.623 4.374-3.607 4.374H54.733c-1.984 0-3.608-1.968-3.608-4.374V31.586c0-2.406 1.624-4.375 3.608-4.375zm8.777 77.234c3.855 0 6.992-3.804 6.992-8.48 0-4.675-3.137-8.48-6.992-8.48-3.856 0-6.993 3.804-6.993 8.48s3.137 8.48 6.993 8.48zm-9.138-36.698c0 1.604 1.082 2.916 2.404 2.916h13.466c1.322 0 2.404-1.312 2.404-2.916V37.613c0-1.604-1.082-2.917-2.404-2.917H56.776c-1.322 0-2.404 1.313-2.404 2.917z" fill="red" filter="url(#a)" transform="translate(-10.063 -16.242)"/><path d="M52.002 27.606h7.494c.664 0 1.203-.653 1.203-1.458 0-.805-.539-1.458-1.203-1.458h-7.494c-.664 0-1.202.653-1.202 1.458 0 .805.539 1.458 1.202 1.458z" fill="#696969"/><path d="M83.926 27.211h17.553c1.984 0 3.607 1.969 3.607 4.374v75.239c0 2.406-1.623 4.374-3.607 4.374H83.926c-1.984 0-3.607-1.968-3.607-4.374V31.586c0-2.406 1.623-4.375 3.607-4.375zm8.777 77.234c3.855 0 6.992-3.804 6.992-8.48 0-4.675-3.137-8.48-6.992-8.48-3.856 0-6.993 3.804-6.993 8.48s3.137 8.48 6.993 8.48zm-9.138-36.698c0 1.604 1.082 2.916 2.405 2.916h13.465c1.323 0 2.405-1.312 2.405-2.916V37.613c0-1.604-1.082-2.917-2.405-2.917H85.97c-1.323 0-2.405 1.313-2.405 2.917z" fill="#1e90ff" filter="url(#b)" transform="translate(-10.063 -16.242)"/><path d="M81.196 27.606h7.494c.664 0 1.202-.653 1.202-1.458 0-.805-.538-1.458-1.202-1.458h-7.494c-.664 0-1.202.653-1.202 1.458 0 .805.538 1.458 1.202 1.458zM81.196 34.544h7.494c.664 0 1.202-.653 1.202-1.458 0-.806-.538-1.458-1.202-1.458h-7.494c-.664 0-1.202.652-1.202 1.458 0 .805.538 1.458 1.202 1.458zM81.196 41.482h7.494c.664 0 1.202-.653 1.202-1.458 0-.805-.538-1.459-1.202-1.459h-7.494c-.664 0-1.202.654-1.202 1.459s.538 1.458 1.202 1.458z" fill="#696969"/><path d="M13.488 102.989l9.273-74.394c.296-2.379 2.144-4.03 4.105-3.671l17.357 3.182c1.962.36 3.324 2.6 3.028 4.979l-9.274 74.393c-.297 2.38-2.144 4.032-4.106 3.672l-17.356-3.182c-1.961-.36-3.324-2.6-3.027-4.98zm23.359-32.29c1.308.24 2.539-.862 2.737-2.448l3.714-29.796c.197-1.586-.71-3.079-2.019-3.32l-13.314-2.44c-1.308-.24-2.539.862-2.737 2.448l-3.714 29.796c-.198 1.586.71 3.08 2.018 3.32zm-15.404 28.83c1.109 1.823 2.736 3.013 4.583 3.352.348.064.703.096 1.053.096 3.424 0 6.393-3.1 6.906-7.213.28-2.24-.178-4.477-1.286-6.3-1.109-1.823-2.736-3.014-4.583-3.352a5.844 5.844 0 0 0-1.052-.097c-3.425 0-6.394 3.101-6.907 7.214-.279 2.24.178 4.477 1.286 6.3z" fill="#00ff7f" filter="url(#c)" transform="translate(-10.063 -16.242)"/><path d="M30.016 24.458c.584 0 1.097-.518 1.187-1.24.099-.797-.353-1.54-1.01-1.66l-7.41-1.359c-.658-.121-1.268.428-1.368 1.224-.1.796.353 1.54 1.01 1.66l7.41 1.358a.977.977 0 0 0 .18.017zM29.36 31.186c.496 0 .93-.518 1.006-1.24.085-.797-.299-1.54-.855-1.66l-9.808-2.122c-.558-.122-1.075.428-1.16 1.224-.084.797.3 1.54.856 1.66l9.807 2.121a.705.705 0 0 0 .154.017z" fill="#696969"/><path d="M155.157 27.457c-3.622.236-7.245.942-7.97 1.648-.724.589-3.743 6.593-6.641 13.422-2.898 6.71-5.555 12.362-5.917 12.362-.362 0-3.019-5.534-5.917-12.362-2.777-6.71-5.917-12.833-6.762-13.54-.846-.706-4.468-1.177-8.091-.941-5.434.353-6.4.706-6.762 2.708-.242 1.412 3.743 12.244 8.815 24.135 6.641 15.658 8.936 22.25 8.09 23.546-.603.942-3.26 2.001-5.796 2.354l-4.71.589v12.95l7.246.354c9.057.353 14.732-2.237 18.113-8.242l2.536-4.356 3.26 4.121c1.933 2.237 5.676 5.18 8.454 6.593 5.313 2.708 11.834 3.06 35.26 2.001l9.66-.47.725-11.303c1.087-15.658 2.295-17.189 6.038-7.888l2.898 7.417 6.883.354c7.85.353 7.85.47 13.162-14.246l2.899-8.006.603 16.836.604 16.835h14.491l.362-26.254.242-26.136h6.158c5.434 0 6.038.236 5.313 2.002-3.622 8.594-3.743 26.607-.12 34.73 2.898 6.71 8.573 12.126 15.456 15.07 11.593 4.827 29.344 1.883 36.71-6.122 6.52-6.946 8.332-12.48 8.332-26.254 0-11.302-.362-13.657-2.898-18.249-3.623-6.946-6.883-10.242-12.8-13.303-4.71-2.473-5.917-2.59-39.85-2.12-19.2.118-35.26.472-35.622.707-.363.235-3.26 7.535-6.642 16.247l-6.038 15.894-6.158-16.13-6.159-16.011-10.747-.235c-5.917-.236-15.094-.59-20.408-.825-5.313-.235-12.679-.117-16.302.118zm36.106 2.002l10.144.117 6.641 17.425 6.763 17.541 3.502-8.712c1.932-4.709 4.95-12.597 6.762-17.424l3.381-8.83 24.634-.47c48.665-.825 44.921-.942 50.355 2.59 10.385 6.592 14.129 14.716 14.129 30.256-.121 9.183-.604 12.127-2.898 16.718l-2.778 5.651h-14.974c-8.21 0-14.973-.353-14.973-.942 0-.47 2.415-.824 5.313-.824 16.664 0 23.668-24.488 10.989-38.027-3.623-3.885-4.589-4.356-10.144-4.356h-6.158v-8.83h-51.684l-1.328 3.65c-.724 2.12-.386 17.741-.506 24.923-5.809 18.389-5.43 22.74-13.313 22.006-2.898 0-5.864-.66-6.468-1.367-.483-.824-2.657-6.004-4.71-11.42l-3.743-9.89-.724 5.77c-.363 3.178-1.087 8.83-1.57 12.597l-.845 6.71-15.82-.117c-15.456 0-15.698-.118-9.78-1.649 3.864-.942 7.124-2.825 9.298-5.18 3.26-3.532 3.38-4.238 3.38-16.011 0-12.362 0-12.362-3.984-16.6-2.898-3.061-5.193-4.356-9.057-4.827-4.83-.589-5.072-.824-5.072-4.592v-4.003h-16.422l-5.797 13.54c-3.14 7.416-6.279 13.538-6.883 13.538-1.087 0 1.932-8.358 7.729-21.78l3.14-7.064 8.21-.706c4.469-.471 12.076-.471 16.665-.236 4.71.354 13.042.707 18.596.825zm-17.389 12.48c1.691.588 4.468 2.59 6.038 4.237 2.778 2.944 3.02 4.003 3.02 15.305 0 11.891 0 12.127-3.624 15.659-10.384 10.007-24.634 2.354-26.324-14.01-.725-7.888 3.864-17.542 9.54-20.368 4.83-2.237 7.003-2.472 11.35-.824zm121.722 1.765c7.366 4.71 10.023 20.014 4.951 29.315-7.004 13.186-23.91 10.478-28.257-4.474-5.071-18.013 9.66-33.67 23.306-24.841z" fill="#fff" filter="url(#d)" transform="matrix(.99952 0 0 1.01038 -9.96 -8.936)"/></svg>