<?xml version="1.0" encoding="UTF-8" standalone="no"?>
<svg
   xmlns:dc="http://purl.org/dc/elements/1.1/"
   xmlns:cc="http://creativecommons.org/ns#"
   xmlns:rdf="http://www.w3.org/1999/02/22-rdf-syntax-ns#"
   xmlns:svg="http://www.w3.org/2000/svg"
   xmlns="http://www.w3.org/2000/svg"
   xmlns:sodipodi="http://sodipodi.sourceforge.net/DTD/sodipodi-0.dtd"
   xmlns:inkscape="http://www.inkscape.org/namespaces/inkscape"
   version="1.0"
   width="189.000000pt"
   height="73.000000pt"
   viewBox="0 0 189.000000 73.000000"
   preserveAspectRatio="xMidYMid meet"
   id="svg2"
   inkscape:version="0.91 r13725"
   sodipodi:docname="logo.svg">
  <defs
     id="defs12" />
  <sodipodi:namedview
     pagecolor="#ffffff"
     bordercolor="#666666"
     borderopacity="1"
     objecttolerance="10"
     gridtolerance="10"
     guidetolerance="10"
     inkscape:pageopacity="0"
     inkscape:pageshadow="2"
     inkscape:window-width="1280"
     inkscape:window-height="747"
     id="namedview10"
     showgrid="false"
     inkscape:zoom="3.6232804"
     inkscape:cx="116.83325"
     inkscape:cy="24.537009"
     inkscape:window-x="0"
     inkscape:window-y="24"
     inkscape:window-maximized="1"
     inkscape:current-layer="g6" />
  <metadata
     id="metadata4">
Created by potrace 1.13, written by Peter Selinger 2001-2015
<rdf:RDF>
  <cc:Work
     rdf:about="">
    <dc:format>image/svg+xml</dc:format>
    <dc:type
       rdf:resource="http://purl.org/dc/dcmitype/StillImage" />
  </cc:Work>
</rdf:RDF>
</metadata>
  <g
     transform="translate(0.000000,73.000000) scale(0.100000,-0.100000)"
     fill="#000000"
     stroke="none"
     id="g6">
    <path
       d="m 450,663 c -30,-2 -60,-8 -66,-14 -6,-5 -31,-56 -55,-114 -24,-57 -46,-105 -49,-105 -3,0 -25,47 -49,105 -23,57 -49,109 -56,115 -7,6 -37,10 -67,8 -45,-3 -53,-6 -56,-23 -2,-12 31,-104 73,-205 55,-133 74,-189 67,-200 -5,-8 -27,-17 -48,-20 l -39,-5 0,-55 0,-55 60,-3 c 75,-3 122,19 150,70 l 21,37 27,-35 c 16,-19 47,-44 70,-56 44,-23 98,-26 292,-17 l 80,4 6,96 c 9,133 19,146 50,67 l 24,-63 57,-3 c 65,-3 65,-4 109,121 l 24,68 5,-143 5,-143 60,0 60,0 3,223 2,222 51,0 c 45,0 50,-2 44,-17 -30,-73 -31,-226 -1,-295 24,-57 71,-103 128,-128 96,-41 243,-16 304,52 54,59 69,106 69,223 0,96 -3,116 -24,155 -30,59 -57,87 -106,113 -39,21 -49,22 -330,18 -159,-1 -292,-4 -295,-6 -3,-2 -27,-64 -55,-138 l -50,-135 -51,137 -51,136 -89,2 c -49,2 -125,5 -169,7 -44,2 -105,1 -135,-1 z m 299,-17 84,-1 55,-148 56,-149 29,74 c 16,40 41,107 56,148 l 28,75 204,4 c 403,7 372,8 417,-22 86,-56 117,-125 117,-257 -1,-78 -5,-103 -24,-142 l -23,-48 -124,0 c -68,0 -124,3 -124,8 0,4 20,7 44,7 138,0 196,208 91,323 -30,33 -38,37 -84,37 l -51,0 0,38 0,37 -214,0 -214,0 -11,-31 c -6,-18 -3.1937,-150.69509 -4.1937,-211.69509 C 1008.7074,231.11429 1011.8376,194.1453 946.56125,200.39031 922.56125,200.39031 898,206 893,212 c -4,7 -22,51 -39,97 l -31,84 -6,-49 c -3,-27 -9,-75 -13,-107 l -7,-57 -131,1 c -128,0 -130,1 -81,14 32,8 59,24 77,44 27,30 28,36 28,136 0,105 0,105 -33,141 -24,26 -43,37 -75,41 -40,5 -42,7 -42,39 l 0,34 -68,0 -68,0 -48,-115 c -26,-63 -52,-115 -57,-115 -9,0 16,71 64,185 l 26,60 68,6 c 37,4 100,4 138,2 39,-3 108,-6 154,-7 z M 605,540 c 14,-5 37,-22 50,-36 23,-25 25,-34 25,-130 0,-101 0,-103 -30,-133 -86,-85 -204,-20 -218,119 -6,67 32,149 79,173 40,19 58,21 94,7 z m 1008,-15 c 61,-40 83,-170 41,-249 -58,-112 -198,-89 -234,38 -42,153 80,286 193,211 z"
       id="path8"
       inkscape:connector-curvature="0"
       sodipodi:nodetypes="sccscssccccccccccccccccccccccccccsccccscccscccccssccccccccccccssscsccccccccccccccccsscssccccscccccccscccccccc" />
  </g>
</svg>
