<svg height="103.58898" viewBox="0 0 313.82654 103.58898" width="313.82654" xmlns="http://www.w3.org/2000/svg" xmlns:xlink="http://www.w3.org/1999/xlink"><filter id="a" color-interpolation-filters="sRGB"><feGaussianBlur result="blur" stdDeviation=".401813"/><feComposite in="SourceGraphic" in2="blur" operator="in" result="composite1"/><feComposite in="composite1" in2="composite1" operator="in" result="fbSourceGraphic"/><feColorMatrix in="fbSourceGraphic" result="fbSourceGraphicAlpha" values="0 0 0 -1 0 0 0 0 -1 0 0 0 0 -1 0 0 0 0 1 0"/><feMorphology in="fbSourceGraphicAlpha" radius="4.3" result="result91"/><feComposite in="fbSourceGraphic" in2="result91" operator="out"/><feGaussianBlur result="result0" stdDeviation="1.2"/><feDiffuseLighting diffuseConstant="1" result="result92"><feDistantLight azimuth="225" elevation="66"/></feDiffuseLighting><feBlend in2="fbSourceGraphic" mode="multiply" result="result93"/><feComposite in2="fbSourceGraphicAlpha" operator="in" result="fbSourceGraphic"/><feColorMatrix in="fbSourceGraphic" result="fbSourceGraphicAlpha" values="0 0 0 -1 0 0 0 0 -1 0 0 0 0 -1 0 0 0 0 1 0"/><feMorphology in="fbSourceGraphicAlpha" operator="dilate" radius="3.6" result="result1"/><feGaussianBlur in="result1" result="result0" stdDeviation="3.6"/><feDiffuseLighting result="result94" surfaceScale="-5"><feDistantLight azimuth="225" elevation="45"/></feDiffuseLighting><feComposite in2="result0" operator="in" result="result91"/><feComposite in="fbSourceGraphic" in2="result91" result="fbSourceGraphic"/><feColorMatrix in="fbSourceGraphic" result="fbSourceGraphicAlpha" values="0 0 0 -1 0 0 0 0 -1 0 0 0 0 -1 0 0 0 0 1 0"/><feFlood flood-opacity=".498039" in="fbSourceGraphic" result="flood"/><feComposite in="fbSourceGraphic" in2="flood" operator="in" result="composite1"/><feGaussianBlur in="composite1" result="blur" stdDeviation="1"/><feOffset dx="3" dy="2" result="offset"/><feComposite in="fbSourceGraphic" in2="offset" operator="over" result="composite2"/></filter><filter id="b" color-interpolation-filters="sRGB"><feGaussianBlur result="blur" stdDeviation=".4"/><feComposite in="SourceGraphic" in2="blur" operator="in" result="composite1"/><feComposite in="composite1" in2="composite1" operator="in" result="fbSourceGraphic"/><feColorMatrix in="fbSourceGraphic" result="fbSourceGraphicAlpha" values="0 0 0 -1 0 0 0 0 -1 0 0 0 0 -1 0 0 0 0 1 0"/><feFlood flood-opacity=".498039" in="fbSourceGraphic" result="flood"/><feComposite in="fbSourceGraphic" in2="flood" operator="in" result="composite1"/><feGaussianBlur in="composite1" result="blur" stdDeviation="1"/><feOffset dx="3" dy="2" result="offset"/><feComposite in="fbSourceGraphic" in2="offset" operator="over" result="fbSourceGraphic"/><feColorMatrix in="fbSourceGraphic" result="fbSourceGraphicAlpha" values="0 0 0 -1 0 0 0 0 -1 0 0 0 0 -1 0 0 0 0 1 0"/><feGaussianBlur in="fbSourceGraphic" result="result0" stdDeviation="6"/><feDiffuseLighting diffuseConstant="1" result="result5" surfaceScale="4"><feDistantLight azimuth="235" elevation="45"/></feDiffuseLighting><feComposite in="result5" in2="fbSourceGraphic" k1="1.4" k2="0" k3="0" k4="0" operator="arithmetic" result="fbSourceGraphic"/><feGaussianBlur in="fbSourceGraphic" result="result0" stdDeviation="6"/><feSpecularLighting in="result0" result="result1" specularConstant="1" specularExponent="25" surfaceScale="4"><feDistantLight azimuth="235" elevation="45"/></feSpecularLighting><feComposite in="fbSourceGraphic" in2="result1" k1="0" k2="1" k3="1" k4="0" operator="arithmetic" result="result4"/><feComposite in="result4" in2="fbSourceGraphic" operator="in" result="fbSourceGraphic"/><feColorMatrix in="fbSourceGraphic" result="fbSourceGraphicAlpha" values="0 0 0 -1 0 0 0 0 -1 0 0 0 0 -1 0 0 0 0 1 0"/><feFlood flood-opacity=".498039" in="fbSourceGraphic" result="flood"/><feComposite in="fbSourceGraphic" in2="flood" operator="in" result="composite1"/><feGaussianBlur in="composite1" result="blur" stdDeviation="1"/><feOffset dx="3" dy="2" result="offset"/><feComposite in="fbSourceGraphic" in2="offset" operator="over" result="composite2"/></filter><filter id="c" color-interpolation-filters="sRGB"><feGaussianBlur result="blur" stdDeviation=".4"/><feComposite in="SourceGraphic" in2="blur" operator="in" result="composite1"/><feComposite in="composite1" in2="composite1" operator="in" result="fbSourceGraphic"/><feColorMatrix in="fbSourceGraphic" result="fbSourceGraphicAlpha" values="0 0 0 -1 0 0 0 0 -1 0 0 0 0 -1 0 0 0 0 1 0"/><feFlood flood-opacity=".498039" in="fbSourceGraphic" result="flood"/><feComposite in="fbSourceGraphic" in2="flood" operator="in" result="composite1"/><feGaussianBlur in="composite1" result="blur" stdDeviation="1"/><feOffset dx="3" dy="2" result="offset"/><feComposite in="fbSourceGraphic" in2="offset" operator="over" result="fbSourceGraphic"/><feColorMatrix in="fbSourceGraphic" result="fbSourceGraphicAlpha" values="0 0 0 -1 0 0 0 0 -1 0 0 0 0 -1 0 0 0 0 1 0"/><feGaussianBlur in="fbSourceGraphic" result="result0" stdDeviation="6"/><feDiffuseLighting diffuseConstant="1" result="result5" surfaceScale="4"><feDistantLight azimuth="235" elevation="45"/></feDiffuseLighting><feComposite in="result5" in2="fbSourceGraphic" k1="1.4" k2="0" k3="0" k4="0" operator="arithmetic" result="fbSourceGraphic"/><feGaussianBlur in="fbSourceGraphic" result="result0" stdDeviation="6"/><feSpecularLighting in="result0" result="result1" specularConstant="1" specularExponent="25" surfaceScale="4"><feDistantLight azimuth="235" elevation="45"/></feSpecularLighting><feComposite in="fbSourceGraphic" in2="result1" k1="0" k2="1" k3="1" k4="0" operator="arithmetic" result="result4"/><feComposite in="result4" in2="fbSourceGraphic" operator="in" result="fbSourceGraphic"/><feColorMatrix in="fbSourceGraphic" result="fbSourceGraphicAlpha" values="0 0 0 -1 0 0 0 0 -1 0 0 0 0 -1 0 0 0 0 1 0"/><feFlood flood-opacity=".498039" in="fbSourceGraphic" result="flood"/><feComposite in="fbSourceGraphic" in2="flood" operator="in" result="composite1"/><feGaussianBlur in="composite1" result="blur" stdDeviation="1"/><feOffset dx="3" dy="2" result="offset"/><feComposite in="fbSourceGraphic" in2="offset" operator="over" result="composite2"/></filter><filter id="d" color-interpolation-filters="sRGB"><feGaussianBlur result="blur" stdDeviation=".4"/><feComposite in="SourceGraphic" in2="blur" operator="in" result="composite1"/><feComposite in="composite1" in2="composite1" operator="in" result="fbSourceGraphic"/><feColorMatrix in="fbSourceGraphic" result="fbSourceGraphicAlpha" values="0 0 0 -1 0 0 0 0 -1 0 0 0 0 -1 0 0 0 0 1 0"/><feFlood flood-opacity=".498039" in="fbSourceGraphic" result="flood"/><feComposite in="fbSourceGraphic" in2="flood" operator="in" result="composite1"/><feGaussianBlur in="composite1" result="blur" stdDeviation="1"/><feOffset dx="3" dy="2" result="offset"/><feComposite in="fbSourceGraphic" in2="offset" operator="over" result="fbSourceGraphic"/><feColorMatrix in="fbSourceGraphic" result="fbSourceGraphicAlpha" values="0 0 0 -1 0 0 0 0 -1 0 0 0 0 -1 0 0 0 0 1 0"/><feGaussianBlur in="fbSourceGraphic" result="result0" stdDeviation="6"/><feDiffuseLighting diffuseConstant="1" result="result5" surfaceScale="4"><feDistantLight azimuth="235" elevation="45"/></feDiffuseLighting><feComposite in="result5" in2="fbSourceGraphic" k1="1.4" k2="0" k3="0" k4="0" operator="arithmetic" result="fbSourceGraphic"/><feGaussianBlur in="fbSourceGraphic" result="result0" stdDeviation="6"/><feSpecularLighting in="result0" result="result1" specularConstant="1" specularExponent="25" surfaceScale="4"><feDistantLight azimuth="235" elevation="45"/></feSpecularLighting><feComposite in="fbSourceGraphic" in2="result1" k1="0" k2="1" k3="1" k4="0" operator="arithmetic" result="result4"/><feComposite in="result4" in2="fbSourceGraphic" operator="in" result="fbSourceGraphic"/><feColorMatrix in="fbSourceGraphic" result="fbSourceGraphicAlpha" values="0 0 0 -1 0 0 0 0 -1 0 0 0 0 -1 0 0 0 0 1 0"/><feFlood flood-opacity=".498039" in="fbSourceGraphic" result="flood"/><feComposite in="fbSourceGraphic" in2="flood" operator="in" result="composite1"/><feGaussianBlur in="composite1" result="blur" stdDeviation="1"/><feOffset dx="3" dy="2" result="offset"/><feComposite in="fbSourceGraphic" in2="offset" operator="over" result="composite2"/></filter><flowRoot transform="translate(-10.062593 -16.242326)"><flowRegion><path d="m340.74225 178.14244h150.32745v100.21831h-150.32745z"/></flowRegion><flowPara/></flowRoot><g transform="translate(-10.062593 -16.242326)"><path d="m54.732783 27.211079h17.553141c1.983916 0 3.607039 1.968428 3.607039 4.374405v75.238546c0 2.40597-1.623123 4.3744-3.607039 4.3744h-17.553141c-1.983916 0-3.607336-1.96806-3.607336-4.3744v-75.238184c0-2.405978 1.62342-4.374767 3.607336-4.374767zm8.77672 77.233711c3.855214 0 6.992119-3.8039 6.992119-8.479635 0-4.675379-3.136607-8.479995-6.992119-8.479995-3.855512 0-6.992715 3.804255-6.992715 8.479995 0 4.675735 3.137203 8.479635 6.992715 8.479635zm-9.137811-36.697748c0 1.604226 1.082082 2.91615 2.404593 2.91615h13.465542c1.322511 0 2.404593-1.311924 2.404593-2.91615v-30.134511c0-1.603864-1.082082-2.91615-2.404593-2.91615h-13.465542c-1.322511 0-2.404593 1.312286-2.404593 2.91615z" fill="#f00" filter="url(#c)"/><path d="m62.065436 43.848055h7.493833c.664086 0 1.202446-.653252 1.202446-1.457894 0-.805365-.538658-1.458617-1.202446-1.458617h-7.493833c-.664086 0-1.202445.653252-1.202445 1.458617 0 .805003.538657 1.457894 1.202445 1.457894z" fill="#696969"/><path d="m83.925751 27.211079h17.553439c1.98392 0 3.60704 1.968428 3.60704 4.374405v75.238546c0 2.40597-1.62312 4.3744-3.60704 4.3744h-17.553439c-1.983916 0-3.60674-1.96806-3.60674-4.3744v-75.238184c0-2.405978 1.622824-4.374767 3.60674-4.374767zm8.777018 77.233711c3.855214 0 6.992417-3.8039 6.992417-8.479635 0-4.675379-3.136905-8.479995-6.992417-8.479995-3.85581 0-6.992715 3.804255-6.992715 8.479995.000298 4.675735 3.136905 8.479635 6.992715 8.479635zm-9.137513-36.697748c0 1.604226 1.082082 2.91615 2.404891 2.91615h13.465244c1.322509 0 2.404589-1.311924 2.404589-2.91615v-30.134511c0-1.603864-1.08208-2.91615-2.404589-2.91615h-13.465244c-1.322809 0-2.404891 1.312286-2.404891 2.91615z" fill="#1e90ff" filter="url(#b)"/><path d="m91.258702 43.848055h7.494131c.664086 0 1.202445-.653252 1.202445-1.457894 0-.805365-.538657-1.458617-1.202445-1.458617h-7.494131c-.664086 0-1.202147.653252-1.202147 1.458617 0 .805003.538061 1.457894 1.202147 1.457894z" fill="#696969"/><path d="m91.258702 50.785969h7.494131c.664086 0 1.202445-.653252 1.202445-1.458255 0-.805726-.538657-1.457894-1.202445-1.457894h-7.494131c-.664086 0-1.202147.652529-1.202147 1.457894 0 .805365.538061 1.458255 1.202147 1.458255z" fill="#696969"/><path d="m91.258702 57.723884h7.494131c.664086 0 1.202445-.652891 1.202445-1.457894 0-.805365-.538657-1.458617-1.202445-1.458617h-7.494131c-.664086 0-1.202147.653252-1.202147 1.458617 0 .805003.538061 1.457894 1.202147 1.457894z" fill="#696969"/><path d="m13.487653 102.9887l9.273071-74.393435c.296739-2.378878 2.143904-4.031158 4.105476-3.671292l17.357103 3.182076c1.961571.359505 3.323409 2.600002 3.027266 4.97888l-9.273368 74.393431c-.296739 2.37888-2.143905 4.03116-4.105774 3.6713l-17.356209-3.18208c-1.961571-.3595-3.324601-2.6-3.027565-4.97888zm23.358903-32.289738c1.308211.239911 2.539258-.861729 2.737381-2.447528l3.713697-29.795962c.197528-1.58616-.710563-3.079463-2.018475-3.319735l-13.314194-2.441025c-1.307614-.239188-2.538959.862091-2.736785 2.44789l-3.714293 29.796323c-.197527 1.58616.710563 3.079824 2.018476 3.319374zm-15.403278 28.829814c1.108597 1.823544 2.736189 3.013704 4.583057 3.352254.347982.064.702221.0961 1.052289.0961 3.424705 0 6.393875-3.100782 6.906315-7.213236.279458-2.239774-.177567-4.47738-1.285866-6.300199-1.108598-1.823181-2.736189-3.013704-4.582759-3.351892-.348578-.06395-.702221-.09647-1.052289-.09647-3.425003 0-6.394471 3.101141-6.906613 7.213595-.279458 2.239412.177268 4.477018 1.285866 6.299838z" fill="#00ff7f" filter="url(#d)"/><path d="m40.078501 40.699943c.584538 0 1.097276-.518122 1.187251-1.240385.09891-.796331-.352749-1.53955-1.009089-1.659867l-7.409817-1.358534c-.658723-.121401-1.269182.427432-1.36869 1.223764-.09921.796332.352749 1.539551 1.009089 1.659868l7.409816 1.358533c.06137.01156.121854.01662.18144.01662z" fill="#696969"/><path d="m39.423089 47.427935c.495718 0 .930071-.518121 1.006083-1.240746.08435-.796331-.298744-1.539189-.85507-1.659506l-9.807791-2.121263c-.55784-.122124-1.075782.427793-1.159874 1.223764-.08435.796332.298744 1.539551.855321 1.659867l9.807539 2.120902c.05177.01156.103286.01698.153792.01698z" fill="#696969"/><path d="m155.15739 27.457157c-3.62267.235462-7.24534.941849-7.96987 1.648235-.72454.588656-3.74343 6.592942-6.64156 13.421345-2.89813 6.710673-5.55476 12.361765-5.91702 12.361765-.36227 0-3.01889-5.533361-5.91703-12.361765-2.77738-6.710672-5.91702-12.832689-6.76231-13.539076-.84529-.706387-4.46796-1.177311-8.09062-.941849-5.43402.353194-6.40006.706387-6.76233 2.707816-.24151 1.412773 3.74344 12.244033 8.81517 24.134874 6.64156 15.658237 8.93591 22.251178 8.09063 23.546218-.60378.94185-3.26041 2.00143-5.79627 2.35463l-4.70947.58865v6.47521 6.47521l7.24533.35319c9.05667.3532 14.73219-2.23689 18.11334-8.24117l2.53587-4.35605 3.2604 4.12059c1.93209 2.23689 5.67551 5.18016 8.45289 6.59294 5.31325 2.70781 11.83405 3.061 35.26063 2.00142l9.66045-.47092.72453-11.30218c1.0868-15.658241 2.29436-17.188745 6.03778-7.887988l2.89812 7.417058 6.88307.3532c7.84912.35319 7.84912.47092 13.16236-14.245469l2.89813-8.005715.60378 16.835544.60378 16.83555h7.24534 7.24533l.36227-26.254034.24151-26.136305h6.15853c5.434 0 6.03778.235463 5.31325 2.001429-3.62267 8.59437-3.74342 26.607229-.12076 34.73068 2.89814 6.71067 8.57365 12.1263 15.45672 15.06957 11.59253 4.82698 29.3436 1.8837 36.7097-6.12201 6.5208-6.94614 8.33213-12.479498 8.33213-26.254037 0-11.302186-.36227-13.656808-2.89813-18.248321-3.62267-6.946134-6.88307-10.242605-12.8001-13.303613-4.70946-2.472353-5.91702-2.590084-39.84934-2.11916-19.20014.117731-35.26063.470924-35.62289.706387-.36227.235462-3.26041 7.53479-6.64156 16.246891l-6.03778 15.893698-6.15854-16.129161-6.15852-16.011428-10.74725-.235463c-5.91702-.235462-15.09445-.588655-20.40769-.824117-5.31325-.235463-12.67934-.117731-16.302.117731zm36.10591 2.001428l10.14347.117732 6.64155 17.424202 6.76231 17.541934 3.50192-8.712102c1.93208-4.709244 4.95097-12.597228 6.76231-17.424203l3.38115-8.829831 24.63414-.470925c48.6645-.824118 44.92108-.941849 50.35508 2.590084 10.38498 6.592941 14.1284 14.716387 14.1284 30.256893-.12075 9.183025-.60377 12.126303-2.89813 16.717821l-2.77738 5.65109h-14.97369c-8.21138 0-14.97369-.35319-14.97369-.94185 0-.47092 2.41511-.82412 5.31324-.82412 16.66427 0 23.6681-24.488068 10.98876-38.027144-3.62267-3.885127-4.58871-4.356051-10.14347-4.356051h-6.15853v-4.473781-4.356051h-25.8417-25.84169l-1.32831 3.649664c-.72454 2.119159-.38566 17.741498-.50641 24.923095-5.80821 18.388498-5.43023 22.740898-13.31271 22.005658-2.89813 0-5.86404-.66043-6.46782-1.36682-.48302-.82411-2.65661-6.004284-4.70946-11.419914l-3.74342-9.889413-.72454 5.768824c-.36226 3.17874-1.0868 8.829833-1.56982 12.597233l-.84529 6.71067-15.81898-.11773c-15.45671 0-15.69822-.11773-9.7812-1.64824 3.86418-.94185 7.12458-2.82554 9.29818-5.18017 3.2604-3.53193 3.38116-4.238317 3.38116-16.011427 0-12.361766 0-12.361766-3.98494-16.600085-2.89813-3.061009-5.19249-4.356051-9.05667-4.826975-4.83022-.588656-5.07173-.824118-5.07173-4.591512v-4.002858h-8.21138-8.21138l-5.79627 13.539076c-3.13964 7.417059-6.27929 13.539077-6.88307 13.539077-1.0868 0 1.93209-8.358909 7.72836-21.780254l3.13965-7.063865 8.21137-.706387c4.46796-.470924 12.07556-.470924 16.66428-.235462 4.70946.353193 13.0416.706386 18.59635.824117zm-17.3888 12.479496c1.69058.588656 4.46796 2.590085 6.03778 4.23832 2.77738 2.943278 3.01889 4.002857 3.01889 15.305043 0 11.890841 0 12.126304-3.62267 15.658236-10.38498 10.00714-24.63414 2.35462-26.32471-14.01-.72454-7.887984 3.86417-17.541935 9.53969-20.367481 4.83022-2.236891 7.00382-2.472353 11.35102-.824118zm121.72162 1.765967c7.36609 4.709244 10.02271 20.014287 4.95098 29.315044-7.00383 13.185888-23.90961 10.478068-28.25681-4.473782-5.07173-18.012858 9.66045-33.671094 23.30583-24.841262z" fill="#fff" filter="url(#a)" transform="matrix(.99951531 0 0 1.0103763 .10320821 7.3063061)"/></g></svg>